<svg xmlns="http://www.w3.org/2000/svg" width="1254" height="1254" viewBox="0 0 1254 1254">
  <defs>
    <linearGradient id="hexGrad" x1="0%" y1="100%" x2="100%" y2="0%">
      <stop offset="0%" stop-color="#1E3A8A"/>
      <stop offset="50%" stop-color="#2563EB"/>
      <stop offset="100%" stop-color="#06B6D4"/>
    </linearGradient>
  </defs>
  <polygon points="627.00,155.00 831.00,283.00 831.00,535.00 627.00,671.00 401.00,535.00 401.00,283.00" fill="url(#hexGrad)"/>
  <polygon points="401.00,535.00 401.00,283.00 499.00,418.00 627.00,494.00 627.00,671.00" fill="#0D349F" opacity="0.70"/>
  <polygon points="627.00,494.00 754.00,418.00 831.00,535.00 627.00,671.00" fill="#1D57FF" opacity="0.55"/>
  <polygon points="559.00,489.00 627.00,418.00 695.00,489.00 627.00,671.00" fill="#0934B5" opacity="0.40"/>
  <polygon points="465.00,323.00 547.00,323.00 629.00,492.00 714.00,323.00 788.00,323.00 666.00,580.00 588.00,580.00" fill="white"/>
  <path d="M 1059.00 723.00 L 990.00 885.00 L 1016.00 884.00 L 1070.00 753.00 L 1073.00 754.00 L 1125.00 884.00 L 1151.00 885.00 L 1147.00 872.00 L 1101.00 765.00 L 1085.00 724.00 L 1083.00 722.00 Z M 768.00 722.00 L 767.00 724.00 L 840.00 885.00 L 868.00 885.00 L 941.00 722.00 L 915.00 723.00 L 855.00 858.00 L 853.00 857.00 L 795.00 724.00 L 793.00 722.00 Z M 671.00 731.00 L 659.00 726.00 L 635.00 722.00 L 564.00 723.00 L 564.00 885.00 L 588.00 885.00 L 588.00 836.00 L 590.00 834.00 L 648.00 833.00 L 663.00 829.00 L 675.00 823.00 L 687.00 812.00 L 695.00 794.00 L 696.00 768.00 L 693.00 756.00 L 688.00 746.00 L 680.00 737.00 Z M 588.00 746.00 L 590.00 744.00 L 641.00 744.00 L 650.00 746.00 L 658.00 750.00 L 667.00 759.00 L 671.00 769.00 L 671.00 787.00 L 667.00 797.00 L 657.00 807.00 L 644.00 812.00 L 590.00 813.00 L 588.00 811.00 Z M 125.00 722.00 L 124.00 884.00 L 240.00 885.00 L 240.00 863.00 L 150.00 862.00 L 150.00 723.00 Z M 366.00 723.00 L 345.00 732.00 L 335.00 739.00 L 324.00 750.00 L 315.00 764.00 L 308.00 784.00 L 306.00 803.00 L 308.00 823.00 L 312.00 836.00 L 325.00 858.00 L 334.00 867.00 L 353.00 879.00 L 371.00 885.00 L 389.00 887.00 L 407.00 886.00 L 421.00 883.00 L 437.00 876.00 L 449.00 868.00 L 463.00 853.00 L 471.00 839.00 L 476.00 825.00 L 478.00 814.00 L 478.00 793.00 L 473.00 772.00 L 461.00 751.00 L 447.00 737.00 L 430.00 727.00 L 419.00 723.00 L 404.00 720.00 L 381.00 720.00 Z M 373.00 744.00 L 383.00 742.00 L 403.00 742.00 L 417.00 746.00 L 428.00 752.00 L 438.00 761.00 L 449.00 779.00 L 453.00 795.00 L 453.00 812.00 L 447.00 832.00 L 440.00 843.00 L 430.00 853.00 L 416.00 861.00 L 400.00 865.00 L 384.00 865.00 L 368.00 861.00 L 357.00 855.00 L 344.00 843.00 L 335.00 827.00 L 331.00 812.00 L 331.00 796.00 L 336.00 777.00 L 344.00 764.00 L 354.00 754.00 Z" fill="#061B44" fill-rule="evenodd"/>
    <g fill="none" stroke="#2563EB" stroke-width="6" stroke-linecap="round">
    <line x1="125" y1="952" x2="230" y2="952"/>
    <line x1="1042" y1="952" x2="1147" y2="952"/>
  </g>
  <text x="627" y="968" text-anchor="middle" fill="#2563EB"
    font-family="Inter, Montserrat, Arial, sans-serif" font-size="48" font-weight="500" letter-spacing="8">SOFTWARE SOLUTIONS</text>
</svg>